<svg xmlns="http://www.w3.org/2000/svg" viewBox="0 0 1750 148"><path d="M115.3 86.8l-10.7-10.6V57.7c0-3.4-2.8-6.2-6.2-6.2s-6.2 2.8-6.2 6.2v6.1l-13.9-14c-2.4-2.4-6.3-2.4-8.7 0l-37.1 37c-2.4 2.5-2.3 6.4.2 8.7 2.4 2.3 6.2 2.3 8.5 0l32.7-32.7 32.7 32.7c2.4 2.5 6.3 2.5 8.7.2 2.5-2.4 2.5-6.3.2-8.7-.1 0-.1-.1-.2-.2M73.9 0C33.1 0 0 33.1 0 73.9s33.1 73.9 73.9 73.9 73.9-33.1 73.9-73.9S114.7 0 73.9 0m0 12.3c34 0 61.6 27.6 61.5 61.6 0 34-27.6 61.6-61.6 61.5-34 0-61.6-27.6-61.5-61.6 0-16.3 6.5-32 18.1-43.6 11.5-11.5 27.2-17.9 43.5-17.9m125.7 135.5c-2.9 0-5.2-2.3-5.2-5.2V5.2c.1-2.9 2.6-5.1 5.5-5 2.7.1 4.9 2.3 5 5v137.4c-.1 2.9-2.4 5.2-5.3 5.2M1743.8 59l5.4-11.8c-3.7-2.4-7.7-4.2-11.9-5.4-4.4-1.3-9-2-13.6-2-4.7-.1-9.5.8-13.9 2.5-3.7 1.4-6.9 3.9-9.3 7.1-2.2 3.1-3.4 6.9-3.3 10.7 0 4.4 1.1 8 3.2 10.7 2 2.6 4.7 4.7 7.8 6.1 3.8 1.6 7.7 3 11.7 4.1 3.5 1 6.2 1.9 8.3 2.7 1.9.7 3.6 1.8 5 3.2 2.7 2.8 2.6 7.4-.2 10.1-.3.3-.7.6-1 .8-2.2 1.4-5.1 2.2-8.9 2.2-4.3-.1-8.5-1.1-12.4-2.8-4.4-1.9-8.5-4.5-12-7.8l-5.6 11.5c4.1 3.5 8.7 6.3 13.7 8.2 5.1 2 10.6 3.1 16.1 3.1 4.8.1 9.5-.8 14-2.5 3.8-1.5 7.1-4 9.6-7.3 2.3-3.3 3.6-7.2 3.5-11.2 0-4.5-1.1-8.1-3.2-10.9-2.1-2.7-4.7-4.8-7.8-6.2-3.8-1.7-7.7-3.1-11.7-4.2-2.8-.8-5.5-1.7-8.1-2.8-1.8-.7-3.5-1.8-4.9-3.2-1.3-1.3-2-3.1-2-4.9 0-2.1 1-4 2.8-5 2.3-1.3 5-2 7.7-1.8 3.4.1 6.8.7 10 1.8 3.8 1.2 7.5 2.9 11 5m-111 52.4h52.9V99.6h-39.4V81.9h34.3V70.1h-34.3V52.6h38.2V40.9h-51.7v70.5zm-27.4-15.6c-2.4 1.4-4.9 2.5-7.6 3.3-2.5.7-5 1.1-7.6 1.1-4.3 0-8.6-1.1-12.3-3.2s-6.7-5.1-8.8-8.8c-6.7-11.4-2.9-26.1 8.5-32.9.1 0 .2-.1.3-.1 3.7-2.1 8-3.2 12.2-3.2 3.6 0 7.3.7 10.6 2.1 3.5 1.4 6.6 3.4 9.3 5.9l7.7-10c-3.7-3.3-8-5.8-12.7-7.5-4.8-1.8-9.8-2.7-14.9-2.7-6.7-.1-13.4 1.6-19.3 4.8-5.7 3-10.4 7.5-13.8 13s-5.1 11.9-5 18.3c-.1 6.5 1.6 12.8 4.9 18.4 3.2 5.5 7.9 10 13.5 13.2 5.8 3.2 12.3 4.9 18.9 4.8 5 0 10.1-.9 14.8-2.6 4.7-1.5 9.1-3.8 13.1-6.7V76.3h-11.8v19.5zm-85.2-54.9h-14l-30.9 70.6h14l6.2-14.9h34.5l6.2 14.9h14.5l-30.5-70.6zm-19.8 44l12.5-29.6 12.3 29.6h-24.8zm-76.3-32.1h22v58.6h13.6V52.8h22v-12h-57.6v12zm-61.3 0h22v58.6h13.6V52.8h22v-12h-57.5l-.1 12zm-7.4 4.9c-3.3-5.5-7.9-10-13.6-13-11.9-6.3-26.2-6.3-38.2 0-17.4 9.7-23.6 31.7-13.9 49.1.1.2.2.4.4.6 3.3 5.5 7.9 10.1 13.6 13.2 11.9 6.4 26.3 6.4 38.2 0 5.6-3.1 10.3-7.6 13.6-13.2 6.5-11.3 6.5-25.3-.1-36.7zm-12 30.5c-2.1 3.6-5 6.7-8.6 8.8s-7.6 3.3-11.8 3.2c-4.2 0-8.3-1.1-11.9-3.2s-6.7-5.1-8.8-8.8c-6.7-11.4-2.9-26.1 8.5-32.9 3.7-2.2 7.9-3.3 12.2-3.3 4.1 0 8.2 1.1 11.8 3.2s6.6 5.1 8.6 8.7c2.1 3.7 3.2 7.9 3.2 12.1 0 4.3-1.1 8.5-3.2 12.2zm-70.3-27l7.9-9.9c-3.5-3.6-7.7-6.5-12.4-8.4-10.9-4.6-23.3-3.9-33.7 1.7-5.6 3.1-10.2 7.5-13.5 13s-5 11.9-4.9 18.3c-.1 6.5 1.6 12.8 4.8 18.4 3.2 5.5 7.8 10 13.3 13.2 5.7 3.2 12.1 4.9 18.6 4.8 5.1 0 10.2-1.1 14.9-3.3 4.8-2.1 9.2-5.2 12.9-8.9l-8-8.9c-2.6 2.6-5.6 4.7-9 6.1-3.2 1.4-6.6 2.2-10.1 2.2-4.2 0-8.4-1.1-12-3.2s-6.5-5.1-8.6-8.7c-4.2-7.5-4.2-16.6 0-24.1 2-3.6 5-6.6 8.6-8.6 6.9-3.9 15.2-4.2 22.3-.7 3.4 1.9 6.4 4.2 8.9 7m-108.2-20.3l-19 33.1-19.2-33.2H1113l26.3 48v22.6h13.5V88.3l25.7-47.5h-13.6v.1zm-77.1 0h-14l-30.9 70.6h14l6.2-14.9h34.5l6.2 14.9h14.5l-30.5-70.6zm-19.9 44l12.5-29.6 12.3 29.6h-24.8zm-31-27c-3.1-5.3-7.7-9.7-13.1-12.5-5.9-3.1-12.4-4.6-19-4.5h-29.3v70.6h28.8c6.7.1 13.3-1.4 19.2-4.5 5.5-2.9 10.1-7.2 13.3-12.5 3.2-5.5 4.9-11.8 4.8-18.2.1-6.6-1.5-12.9-4.7-18.4zm-12 30.4c-1.9 3.5-4.7 6.3-8.1 8.3-3.5 2-7.6 3-11.6 3H989V52.7h15.6c4.1 0 8.2 1 11.8 3 3.5 2 6.4 4.9 8.3 8.4 4.1 7.6 4.1 16.6.2 24.2zm-80.3-47.4h13.5v70.6h-13.5V40.9zm-54.5 70.5H934V99.2h-30.4V40.9h-13.5v70.5zm-16.8-53.7c-3.3-5.5-7.9-10-13.6-13-12-6.3-26.3-6.3-38.2 0-17.4 9.7-23.6 31.7-13.9 49.1.1.2.2.4.4.6 3.3 5.5 7.9 10.1 13.6 13.2 11.9 6.5 26.3 6.5 38.2 0 5.6-3.1 10.3-7.6 13.6-13.2 6.5-11.3 6.5-25.3-.1-36.7zm-12.1 30.5c-2.1 3.6-5 6.7-8.6 8.8s-7.6 3.2-11.8 3.2-8.3-1.1-11.9-3.2-6.7-5.1-8.8-8.8c-6.7-11.4-2.9-26.1 8.5-32.9 3.7-2.2 7.9-3.3 12.2-3.3 4.1 0 8.2 1.1 11.8 3.2s6.6 5.1 8.6 8.7c2.1 3.7 3.2 7.9 3.2 12.1 0 4.3-1.1 8.5-3.2 12.2zm-132.3 23.2h13.5V82.8h35.2v28.6h13.5V40.9h-13.5V71h-35.2V40.9h-13.5v70.5zm-65.2-46.2l8.5-17.8c-4.4-2.7-9.2-4.8-14.3-6.1-5.4-1.5-10.9-2.3-16.5-2.3-5.4-.1-10.9.8-15.9 2.8-4.2 1.6-7.9 4.4-10.6 8.1-2.5 3.6-3.8 7.9-3.7 12.3 0 4.8 1.2 8.7 3.6 11.6 2.3 2.8 5.3 5 8.6 6.4 4.1 1.6 8.2 3 12.4 4 3.1.7 6.1 1.6 9 2.9 1.9.9 2.9 2.2 2.9 3.8.1 1.2-.5 2.4-1.5 3-1.3.7-2.7 1.1-4.1 1-3.6 0-8.1-1.1-13.5-3.3-4.9-1.9-9.4-4.6-13.4-8l-8.6 17.6c5 3.7 10.5 6.6 16.5 8.4 6.1 2 12.5 3 18.9 3.1 5.1.1 10.2-.8 15-2.5 4.2-1.5 8-4.2 10.7-7.7 2.7-3.7 4.2-8.2 4-12.8 0-5-1.2-9-3.7-12-2.3-2.9-5.3-5.2-8.7-6.7-4.1-1.7-8.3-3.1-12.5-4.2-3-.7-6-1.7-8.8-2.9-1.9-.9-2.8-2.1-2.8-3.7 0-2.1 1.4-3.1 4.3-3.1s6.7.8 11.5 2.5c4.3 1.4 8.6 3.3 12.7 5.6m-139.6 46.2h60.7V93.7h-37.3v-8.8h33.1V67.2h-33.1v-8.7h36.4V40.8h-59.8v70.6zm-49-42.4l25.3-28.2h-26.9l-21.1 25.8V40.8H429v70.7h23.4V94.3l6.7-7.5 14.9 24.6h27.9L475.1 69zm-90.5-28.2L370.9 68l-14.2-27.2h-23.3L359.2 90v21.5h23.4v-22l25.3-48.7h-23.3zm-76.3 24.4l8.5-17.8c-4.4-2.7-9.2-4.8-14.3-6.1-5.4-1.5-10.9-2.3-16.5-2.3-5.4-.1-10.9.8-15.9 2.8-4.2 1.6-7.9 4.4-10.6 8.1-2.5 3.6-3.8 8-3.7 12.4 0 4.8 1.2 8.7 3.6 11.6 2.3 2.8 5.3 5 8.6 6.4 4.1 1.6 8.2 3 12.4 4 3.1.7 6.1 1.6 9 2.9 1.9.9 2.9 2.2 2.9 3.8.1 1.2-.5 2.4-1.5 3-1.3.7-2.7 1.1-4.1 1-3.6 0-8.1-1.1-13.5-3.3-4.9-1.9-9.4-4.6-13.4-7.9l-8.6 17.5c5 3.7 10.5 6.6 16.5 8.4 6.1 2 12.5 3 18.9 3.1 5.1.1 10.2-.8 15-2.5 4.2-1.5 8-4.2 10.7-7.7 2.7-3.7 4.2-8.2 4-12.8 0-5-1.2-9-3.7-12-2.3-2.9-5.3-5.2-8.7-6.7-4.1-1.7-8.3-3.1-12.6-4.3-3-.7-6-1.7-8.8-2.9-1.8-.9-2.8-2.1-2.8-3.7 0-2.1 1.4-3.1 4.3-3.1s6.7.8 11.5 2.5c4.4 1.4 8.7 3.3 12.8 5.6" fill="#fff"/></svg>